<?xml version="1.0" standalone="no"?>
<!DOCTYPE svg PUBLIC "-//W3C//DTD SVG 20010904//EN"
 "http://www.w3.org/TR/2001/REC-SVG-20010904/DTD/svg10.dtd">
<svg version="1.0" xmlns="http://www.w3.org/2000/svg"
 width="600.000000pt" height="600.000000pt" viewBox="0 0 600.000000 600.000000"
 preserveAspectRatio="xMidYMid meet">
<metadata>
Created by potrace 1.14, written by Peter Selinger 2001-2017
</metadata>
<g transform="translate(0.000000,600.000000) scale(0.100000,-0.100000)"
fill="#000000" stroke="none">
<path d="M2027 5483 c-2 -5 0 -93 5 -198 14 -285 -17 -1127 -41 -1145 -4 -3
-13 -53 -19 -111 -23 -200 -94 -576 -111 -589 -4 -3 -22 -57 -40 -120 -49
-168 -88 -278 -106 -296 -8 -8 -15 -20 -15 -26 0 -15 -102 -252 -111 -258 -3
-3 -35 -63 -70 -135 -34 -71 -66 -131 -71 -133 -4 -2 -28 -44 -54 -95 -57
-112 -66 -128 -81 -145 -7 -7 -39 -66 -70 -130 -32 -64 -63 -121 -70 -127 -6
-5 -32 -54 -58 -108 -26 -54 -53 -103 -59 -110 -6 -7 -40 -76 -74 -155 -59
-133 -68 -172 -42 -172 5 0 10 -6 10 -14 0 -8 26 -30 58 -50 31 -19 64 -41 72
-49 8 -8 35 -27 60 -43 25 -16 47 -31 50 -35 3 -3 28 -21 55 -39 28 -19 55
-41 61 -49 7 -8 30 -15 60 -16 50 -2 275 -53 284 -65 3 -4 66 -22 140 -40 74
-19 137 -37 140 -41 3 -4 66 -22 140 -40 74 -18 137 -36 140 -40 3 -3 73 -23
155 -44 83 -20 152 -40 155 -44 3 -4 68 -22 145 -41 77 -19 142 -37 145 -41 3
-4 73 -24 155 -44 83 -21 152 -41 155 -44 3 -4 66 -22 140 -40 74 -18 137 -36
140 -40 3 -4 66 -22 140 -41 74 -18 137 -36 140 -40 3 -4 39 -15 80 -24 71
-18 75 -18 85 -1 5 10 18 26 27 36 15 16 42 60 92 152 11 21 27 45 35 55 20
23 32 44 94 162 27 52 53 97 57 100 4 3 33 59 65 125 33 66 62 122 65 125 9 7
130 285 130 298 0 5 4 12 10 14 5 2 19 28 30 58 43 115 51 137 72 200 12 36
25 67 29 70 9 6 82 240 111 355 11 44 23 82 28 85 9 6 81 328 106 475 10 55
21 102 24 105 8 5 43 274 60 450 20 211 30 421 31 676 l1 260 -42 90 c-24 49
-46 91 -50 94 -4 3 -32 59 -61 125 -29 66 -58 125 -65 131 -7 6 -22 31 -33 57
l-20 45 -78 18 c-43 9 -80 20 -83 24 -3 4 -70 22 -150 40 -80 18 -147 36 -150
39 -3 4 -81 24 -175 46 -93 21 -172 41 -175 45 -3 4 -70 22 -150 40 -80 18
-147 36 -150 40 -3 4 -70 22 -150 40 -80 18 -147 36 -150 39 -3 4 -81 24 -175
46 -93 21 -172 41 -175 45 -3 4 -70 22 -150 40 -80 18 -147 36 -150 39 -3 4
-68 22 -145 40 -77 19 -142 37 -145 40 -4 6 -233 62 -252 61 -4 0 -9 -3 -11
-7z m208 -99 c66 -15 122 -30 125 -33 3 -4 70 -22 150 -40 80 -19 147 -37 150
-40 3 -4 82 -24 175 -46 94 -21 172 -41 175 -45 3 -4 70 -22 150 -40 80 -18
147 -36 150 -39 3 -4 73 -22 155 -41 83 -19 153 -38 156 -42 3 -4 77 -24 165
-45 87 -20 161 -39 164 -43 3 -4 70 -22 150 -40 80 -18 147 -36 150 -39 3 -4
83 -25 178 -46 l174 -40 -6 -50 c-3 -27 -13 -147 -22 -265 -10 -118 -21 -217
-24 -220 -4 -3 -10 -48 -14 -100 -8 -103 -60 -615 -75 -745 -28 -227 -35 -275
-41 -275 -4 0 -11 -28 -14 -62 -8 -68 -40 -264 -56 -338 -51 -242 -63 -296
-69 -300 -4 -3 -20 -50 -35 -105 -33 -115 -86 -268 -96 -275 -4 -3 -32 -60
-61 -128 -29 -67 -60 -130 -68 -140 -9 -9 -22 -28 -28 -42 -32 -67 -95 -176
-107 -185 -7 -5 -36 -48 -65 -95 -29 -47 -60 -92 -69 -100 -18 -16 -110 -148
-127 -180 -5 -11 -13 -20 -17 -20 -4 0 -34 -37 -67 -83 -33 -45 -70 -92 -81
-103 -12 -12 -27 -30 -33 -41 -7 -11 -26 -39 -44 -62 -17 -23 -33 -46 -35 -51
-3 -10 -78 8 -88 20 -3 4 -72 23 -155 44 -82 20 -152 40 -155 44 -3 4 -68 23
-145 42 -77 19 -142 37 -145 41 -3 4 -66 22 -140 40 -74 19 -137 37 -140 41
-3 4 -73 24 -155 44 -83 21 -152 41 -155 44 -3 4 -66 22 -140 41 -74 18 -137
36 -140 40 -3 4 -63 21 -135 39 -71 18 -132 36 -135 40 -3 4 -25 12 -50 18
-103 23 -255 64 -260 71 -3 4 -50 17 -105 30 -55 13 -105 27 -112 30 -8 4 -3
26 19 76 17 39 34 72 37 75 4 3 31 57 61 120 29 63 58 120 64 125 7 6 40 66
75 135 34 68 66 127 70 130 5 3 35 57 67 120 32 63 64 120 70 125 7 6 38 63
69 127 31 64 60 118 65 120 4 2 34 61 65 133 31 71 60 132 65 135 10 6 87 209
116 305 10 33 21 62 25 65 18 14 118 425 119 488 0 12 4 22 9 22 10 0 26 98
51 330 31 290 43 535 44 937 1 336 3 382 16 379 8 -3 69 -17 135 -32z m2445
-784 c0 -6 4 -10 8 -10 5 0 35 -58 67 -130 31 -71 61 -130 64 -130 4 0 15 -16
24 -35 15 -31 17 -72 17 -293 0 -261 -24 -712 -39 -722 -4 -3 -11 -39 -15 -80
-17 -195 -99 -672 -116 -678 -6 -2 -10 -11 -10 -19 0 -41 -117 -473 -130 -483
-4 -3 -15 -30 -25 -60 -39 -122 -98 -285 -105 -290 -4 -3 -23 -48 -43 -100
-43 -116 -86 -213 -97 -220 -4 -3 -20 -34 -35 -70 -34 -82 -84 -183 -93 -190
-4 -3 -32 -54 -62 -114 -29 -60 -61 -117 -69 -126 -9 -9 -27 -39 -41 -66 -14
-27 -37 -68 -52 -91 -16 -23 -28 -45 -28 -50 0 -4 -12 -19 -25 -32 -14 -13
-25 -29 -25 -37 0 -8 -7 -14 -15 -14 -8 0 -15 4 -15 10 0 5 -28 24 -62 41 -34
17 -68 38 -76 45 -8 8 -42 29 -76 46 -33 17 -64 35 -68 41 -3 6 -30 22 -60 37
-29 14 -53 32 -53 38 0 7 16 29 35 50 20 20 51 59 70 86 19 27 47 62 63 78 15
16 27 32 27 35 0 2 16 24 35 47 19 24 35 47 35 52 0 5 12 23 28 39 38 43 92
113 92 120 0 4 11 21 25 39 14 18 25 37 25 42 0 5 14 22 30 38 17 16 30 33 30
38 0 5 14 29 30 53 17 24 30 48 30 54 0 6 9 20 20 31 12 12 48 76 82 143 34
67 65 124 70 125 4 2 8 10 8 18 0 8 8 31 19 52 10 20 35 87 56 147 21 61 41
112 44 115 15 11 68 224 112 440 12 63 25 117 29 120 12 10 90 559 111 785 7
72 15 132 19 135 4 3 12 61 19 130 20 208 71 800 71 823 0 19 3 17 20 -11 11
-18 20 -37 20 -42z m-3478 -3246 c57 -15 105 -30 108 -33 3 -4 68 -22 145 -41
77 -19 142 -38 145 -42 3 -4 64 -22 135 -40 72 -18 132 -35 135 -39 3 -4 73
-24 155 -44 83 -21 152 -41 155 -44 3 -4 66 -22 140 -41 74 -18 137 -36 140
-40 3 -4 66 -22 140 -40 74 -19 137 -37 140 -41 3 -3 73 -23 155 -44 83 -21
152 -41 155 -44 3 -4 66 -22 140 -40 74 -19 137 -37 140 -42 3 -4 22 -10 42
-14 30 -6 39 -4 44 10 4 9 10 13 13 8 3 -5 32 -22 63 -37 32 -16 65 -36 75
-45 10 -9 43 -29 73 -45 30 -15 60 -33 65 -40 6 -7 27 -21 48 -31 21 -10 36
-19 34 -21 -5 -5 -181 40 -187 48 -3 4 -64 21 -135 39 -72 18 -132 35 -135 39
-3 4 -75 24 -160 45 -85 21 -157 41 -160 45 -3 4 -66 22 -140 40 -74 19 -137
37 -140 40 -3 4 -72 24 -155 44 -82 21 -152 41 -155 45 -3 4 -67 22 -142 40
-75 18 -138 36 -140 40 -2 3 -66 22 -143 41 -77 19 -142 37 -145 41 -3 4 -75
24 -160 45 -85 21 -157 41 -160 45 -6 9 -165 49 -195 49 -12 0 -33 11 -46 23
-13 13 -44 37 -69 53 -25 16 -47 31 -50 35 -3 3 -23 18 -45 32 -22 15 -37 27
-33 27 4 0 54 -12 110 -26z"/>
</g>
</svg>
